{
  "accessors": [
    {
      "bufferView": 2,
      "componentType": 5126,
      "count": 12393,
      "max": [
        9.834760665893555,
        5.820968151092529,
        42.33163833618164
      ],
      "min": [
        -9.395146369934082,
        -4.271265983581543,
        -0.709771990776062
      ],
      "type": "VEC3"
    },
    {
      "bufferView": 2,
      "byteOffset": 148716,
      "componentType": 5126,
      "count": 12393,
      "max": [
        1.0,
        1.0,
        0.9998723268508911
      ],
      "min": [
        -1.0,
        -1.0,
        -0.9984278678894043
      ],
      "type": "VEC3"
    },
    {
      "bufferView": 3,
      "componentType": 5126,
      "count": 12393,
      "max": [
        1.0,
        1.0,
        0.999999463558197,
        1.0
      ],
      "min": [
        -0.9999993443489075,
        -0.9999828934669495,
        -0.9999999403953552,
        -1.0
      ],
      "type": "VEC4"
    },
    {
      "bufferView": 1,
      "componentType": 5126,
      "count": 12393,
      "max": [
        0.9985349774360657,
        0.9966899752616882
      ],
      "min": [
        0.0014649999793618917,
        0.0014649999793618917
      ],
      "type": "VEC2"
    },
    {
      "bufferView": 0,
      "componentType": 5125,
      "count": 45483,
      "type": "SCALAR"
    },
    {
      "bufferView": 2,
      "byteOffset": 297432,
      "componentType": 5126,
      "count": 534,
      "max": [
        8.236616134643555,
        4.234281063079834,
        36.574676513671875
      ],
      "min": [
        -6.936690807342529,
        -2.1700069904327393,
        2.3365609645843506
      ],
      "type": "VEC3"
    },
    {
      "bufferView": 2,
      "byteOffset": 303840,
      "componentType": 5126,
      "count": 534,
      "max": [
        1.0,
        0.9986398816108704,
        0.9960799217224121
      ],
      "min": [
        -0.9999999403953552,
        -1.0,
        -0.9360790252685547
      ],
      "type": "VEC3"
    },
    {
      "bufferView": 3,
      "byteOffset": 198288,
      "componentType": 5126,
      "count": 534,
      "max": [
        1.0,
        1.0,
        0.737399697303772,
        1.0
      ],
      "min": [
        -0.9999712109565735,
        -0.9999977350234985,
        -0.9874362349510193,
        -1.0
      ],
      "type": "VEC4"
    },
    {
      "bufferView": 1,
      "byteOffset": 99144,
      "componentType": 5126,
      "count": 534,
      "max": [
        0.9614319801330566,
        0.7101680040359497
      ],
      "min": [
        0.1333020031452179,
        0.001471000025048852
      ],
      "type": "VEC2"
    },
    {
      "bufferView": 0,
      "byteOffset": 181932,
      "componentType": 5125,
      "count": 1764,
      "type": "SCALAR"
    }
  ],
  "asset": {
    "extras": {
      "author": "Archrend (https://sketchfab.com/Archrend)",
      "license": "CC-BY-4.0 (http://creativecommons.org/licenses/by/4.0/)",
      "source": "https://sketchfab.com/3d-models/xalatath-5ba845f2a71042868f4a512eb1c9d4bf",
      "title": "Xal'atath"
    },
    "generator": "Sketchfab-15.49.0",
    "version": "2.0"
  },
  "bufferViews": [
    {
      "buffer": 0,
      "byteLength": 188988,
      "name": "floatBufferViews",
      "target": 34963
    },
    {
      "buffer": 0,
      "byteLength": 103416,
      "byteOffset": 188988,
      "byteStride": 8,
      "name": "floatBufferViews",
      "target": 34962
    },
    {
      "buffer": 0,
      "byteLength": 310248,
      "byteOffset": 292404,
      "byteStride": 12,
      "name": "floatBufferViews",
      "target": 34962
    },
    {
      "buffer": 0,
      "byteLength": 206832,
      "byteOffset": 602652,
      "byteStride": 16,
      "name": "floatBufferViews",
      "target": 34962
    }
  ],
  "buffers": [
    {
      "byteLength": 809484,
      "uri": "scene.bin"
    }
  ],
  "images": [
    {
      "uri": "textures/material_0_baseColor.png"
    },
    {
      "uri": "textures/material_0_metallicRoughness.png"
    },
    {
      "uri": "textures/material_0_normal.png"
    }
  ],
  "materials": [
    {
      "alphaMode": "BLEND",
      "doubleSided": true,
      "name": "material_0",
      "normalTexture": {
        "index": 2
      },
      "occlusionTexture": {
        "index": 1
      },
      "pbrMetallicRoughness": {
        "baseColorTexture": {
          "index": 0
        },
        "metallicRoughnessTexture": {
          "index": 1
        }
      }
    }
  ],
  "meshes": [
    {
      "name": "Object_0",
      "primitives": [
        {
          "attributes": {
            "NORMAL": 1,
            "POSITION": 0,
            "TANGENT": 2,
            "TEXCOORD_0": 3
          },
          "indices": 4,
          "material": 0,
          "mode": 4
        }
      ]
    },
    {
      "name": "Object_1",
      "primitives": [
        {
          "attributes": {
            "NORMAL": 6,
            "POSITION": 5,
            "TANGENT": 7,
            "TEXCOORD_0": 8
          },
          "indices": 9,
          "material": 0,
          "mode": 4
        }
      ]
    }
  ],
  "nodes": [
    {
      "children": [
        1
      ],
      "matrix": [
        1.0,
        0.0,
        0.0,
        0.0,
        0.0,
        2.220446049250313e-16,
        -1.0,
        0.0,
        0.0,
        1.0,
        2.220446049250313e-16,
        0.0,
        0.0,
        0.0,
        0.0,
        1.0
      ],
      "name": "Sketchfab_model"
    },
    {
      "children": [
        2,
        3
      ],
      "name": "XalLOD0.obj.cleaner.materialmerger.gles"
    },
    {
      "mesh": 0,
      "name": "Object_2"
    },
    {
      "mesh": 1,
      "name": "Object_3"
    }
  ],
  "samplers": [
    {
      "magFilter": 9729,
      "minFilter": 9987,
      "wrapS": 10497,
      "wrapT": 10497
    }
  ],
  "scene": 0,
  "scenes": [
    {
      "name": "Sketchfab_Scene",
      "nodes": [
        0
      ]
    }
  ],
  "textures": [
    {
      "sampler": 0,
      "source": 0
    },
    {
      "sampler": 0,
      "source": 1
    },
    {
      "sampler": 0,
      "source": 2
    }
  ]
}
