{
  "accessors": [
    {
      "bufferView": 2,
      "componentType": 5126,
      "count": 63661,
      "max": [
        0.5098264813423157,
        0.12990888953208923,
        0.5095165371894836
      ],
      "min": [
        -0.5081300139427185,
        -0.12984323501586914,
        -0.509418785572052
      ],
      "type": "VEC3"
    },
    {
      "bufferView": 2,
      "byteOffset": 763932,
      "componentType": 5126,
      "count": 63661,
      "max": [
        0.9999667406082153,
        0.9999336004257202,
        0.9999970197677612
      ],
      "min": [
        -0.9999961853027344,
        -0.9999793767929077,
        -0.9999538660049438
      ],
      "type": "VEC3"
    },
    {
      "bufferView": 1,
      "componentType": 5126,
      "count": 63661,
      "max": [
        1.0,
        1.0
      ],
      "min": [
        0.0,
        0.0
      ],
      "type": "VEC2"
    },
    {
      "bufferView": 0,
      "componentType": 5125,
      "count": 352512,
      "type": "SCALAR"
    },
    {
      "bufferView": 2,
      "byteOffset": 1527864,
      "componentType": 5126,
      "count": 65532,
      "max": [
        0.5106318593025208,
        0.13028089702129364,
        0.5057740807533264
      ],
      "min": [
        -0.5004847645759583,
        -0.1294848769903183,
        -0.5090331435203552
      ],
      "type": "VEC3"
    },
    {
      "bufferView": 2,
      "byteOffset": 2314248,
      "componentType": 5126,
      "count": 65532,
      "max": [
        0.9999656677246094,
        0.9999896287918091,
        0.9999926090240479
      ],
      "min": [
        -0.9999507665634155,
        -0.9999898672103882,
        -0.9999973773956299
      ],
      "type": "VEC3"
    },
    {
      "bufferView": 1,
      "byteOffset": 509288,
      "componentType": 5126,
      "count": 65532,
      "max": [
        1.0,
        1.0
      ],
      "min": [
        0.0,
        0.0
      ],
      "type": "VEC2"
    },
    {
      "bufferView": 0,
      "byteOffset": 1410048,
      "componentType": 5125,
      "count": 363678,
      "type": "SCALAR"
    },
    {
      "bufferView": 2,
      "byteOffset": 3100632,
      "componentType": 5126,
      "count": 65532,
      "max": [
        0.5118262767791748,
        0.1313888430595398,
        0.5060187578201294
      ],
      "min": [
        -0.5028906464576721,
        -0.13147056102752686,
        -0.5093393921852112
      ],
      "type": "VEC3"
    },
    {
      "bufferView": 2,
      "byteOffset": 3887016,
      "componentType": 5126,
      "count": 65532,
      "max": [
        0.9999895095825195,
        0.9999805688858032,
        0.9999446868896484
      ],
      "min": [
        -0.999962568283081,
        -0.9999898672103882,
        -0.9999973773956299
      ],
      "type": "VEC3"
    },
    {
      "bufferView": 1,
      "byteOffset": 1033544,
      "componentType": 5126,
      "count": 65532,
      "max": [
        1.0,
        1.0
      ],
      "min": [
        0.0,
        0.0
      ],
      "type": "VEC2"
    },
    {
      "bufferView": 0,
      "byteOffset": 2864760,
      "componentType": 5125,
      "count": 340455,
      "type": "SCALAR"
    },
    {
      "bufferView": 2,
      "byteOffset": 4673400,
      "componentType": 5126,
      "count": 65532,
      "max": [
        0.5046856999397278,
        0.1305151730775833,
        0.5052241086959839
      ],
      "min": [
        -0.5039934515953064,
        -0.13147056102752686,
        -0.5073750615119934
      ],
      "type": "VEC3"
    },
    {
      "bufferView": 2,
      "byteOffset": 5459784,
      "componentType": 5126,
      "count": 65532,
      "max": [
        0.999985933303833,
        0.99998939037323,
        0.999930739402771
      ],
      "min": [
        -0.9999946355819702,
        -0.9999805688858032,
        -0.9998542070388794
      ],
      "type": "VEC3"
    },
    {
      "bufferView": 1,
      "byteOffset": 1557800,
      "componentType": 5126,
      "count": 65532,
      "max": [
        1.0,
        1.0
      ],
      "min": [
        0.00020424836839083582,
        0.0
      ],
      "type": "VEC2"
    },
    {
      "bufferView": 0,
      "byteOffset": 4226580,
      "componentType": 5125,
      "count": 346467,
      "type": "SCALAR"
    },
    {
      "bufferView": 2,
      "byteOffset": 6246168,
      "componentType": 5126,
      "count": 45222,
      "max": [
        0.5017454028129578,
        0.129911407828331,
        0.5039578080177307
      ],
      "min": [
        -0.5016418695449829,
        -0.12872658669948578,
        -0.5072684288024902
      ],
      "type": "VEC3"
    },
    {
      "bufferView": 2,
      "byteOffset": 6788832,
      "componentType": 5126,
      "count": 45222,
      "max": [
        0.9999953508377075,
        0.9999977350234985,
        0.999879002571106
      ],
      "min": [
        -0.9999891519546509,
        -0.9999674558639526,
        -0.9999562501907349
      ],
      "type": "VEC3"
    },
    {
      "bufferView": 1,
      "byteOffset": 2082056,
      "componentType": 5126,
      "count": 45222,
      "max": [
        1.0,
        0.5909090638160706
      ],
      "min": [
        0.0024509804788976908,
        0.0
      ],
      "type": "VEC2"
    },
    {
      "bufferView": 0,
      "byteOffset": 5612448,
      "componentType": 5125,
      "count": 241944,
      "type": "SCALAR"
    },
    {
      "bufferView": 3,
      "componentType": 5126,
      "count": 700,
      "max": [
        11.666666984558105
      ],
      "min": [
        0.01666666753590107
      ],
      "type": "SCALAR"
    },
    {
      "bufferView": 4,
      "componentType": 5126,
      "count": 700,
      "max": [
        0.0,
        0.9999974966049194,
        -0.0,
        1.0
      ],
      "min": [
        0.0,
        -0.9999368786811829,
        -0.0,
        -0.006741635501384735
      ],
      "type": "VEC4"
    },
    {
      "bufferView": 3,
      "byteOffset": 2800,
      "componentType": 5126,
      "count": 700,
      "max": [
        11.666666984558105
      ],
      "min": [
        0.01666666753590107
      ],
      "type": "SCALAR"
    },
    {
      "bufferView": 4,
      "byteOffset": 11200,
      "componentType": 5126,
      "count": 700,
      "max": [
        0.0,
        0.9999974966049194,
        -0.0,
        1.0
      ],
      "min": [
        0.0,
        -0.9999368786811829,
        -0.0,
        -0.006741635501384735
      ],
      "type": "VEC4"
    }
  ],
  "animations": [
    {
      "channels": [
        {
          "sampler": 0,
          "target": {
            "node": 3,
            "path": "rotation"
          }
        }
      ],
      "name": "Action",
      "samplers": [
        {
          "input": 20,
          "interpolation": "LINEAR",
          "output": 21
        }
      ]
    },
    {
      "channels": [
        {
          "sampler": 0,
          "target": {
            "node": 3,
            "path": "rotation"
          }
        }
      ],
      "name": "CircleAction",
      "samplers": [
        {
          "input": 22,
          "interpolation": "LINEAR",
          "output": 23
        }
      ]
    }
  ],
  "asset": {
    "extras": {
      "author": "Tycho Magnetic Anomaly (https://sketchfab.com/Tycho_Magnetic_Anomaly)",
      "license": "CC-BY-4.0 (http://creativecommons.org/licenses/by/4.0/)",
      "source": "https://sketchfab.com/3d-models/planck-kingdom-5e9b7e38be6449d1888787b9af30028e",
      "title": "Planck Kingdom"
    },
    "generator": "Sketchfab-15.5.0",
    "version": "2.0"
  },
  "bufferViews": [
    {
      "buffer": 0,
      "byteLength": 6580224,
      "name": "floatBufferViews",
      "target": 34963
    },
    {
      "buffer": 0,
      "byteLength": 2443832,
      "byteOffset": 6580224,
      "byteStride": 8,
      "name": "floatBufferViews",
      "target": 34962
    },
    {
      "buffer": 0,
      "byteLength": 7331496,
      "byteOffset": 9024056,
      "byteStride": 12,
      "name": "floatBufferViews",
      "target": 34962
    },
    {
      "buffer": 0,
      "byteLength": 5600,
      "byteOffset": 16355552,
      "name": "floatBufferViews"
    },
    {
      "buffer": 0,
      "byteLength": 22400,
      "byteOffset": 16361152,
      "byteStride": 16,
      "name": "floatBufferViews"
    }
  ],
  "buffers": [
    {
      "byteLength": 16383552,
      "uri": "scene.bin"
    }
  ],
  "extensionsUsed": [
    "KHR_materials_specular",
    "KHR_materials_emissive_strength",
    "KHR_texture_transform"
  ],
  "images": [
    {
      "uri": "textures/material_baseColor.png"
    },
    {
      "uri": "textures/material_1_emissive.png"
    }
  ],
  "materials": [
    {
      "alphaMode": "BLEND",
      "doubleSided": true,
      "emissiveFactor": [
        0.08060323044031495,
        0.08060323044031495,
        0.08060323044031495
      ],
      "emissiveTexture": {
        "index": 0
      },
      "extensions": {
        "KHR_materials_specular": {
          "specularColorFactor": [
            1.0,
            1.0,
            1.0
          ],
          "specularFactor": 1.0
        }
      },
      "name": "material",
      "pbrMetallicRoughness": {
        "baseColorFactor": [
          1.0,
          1.0,
          1.0,
          0.008060323044031495
        ],
        "baseColorTexture": {
          "index": 0
        },
        "roughnessFactor": 0.0
      }
    },
    {
      "alphaMode": "BLEND",
      "doubleSided": true,
      "emissiveFactor": [
        1.0,
        1.0,
        1.0
      ],
      "emissiveTexture": {
        "extensions": {
          "KHR_texture_transform": {
            "scale": [
              -0.6875408588,
              -0.6875408588
            ]
          }
        },
        "index": 1
      },
      "extensions": {
        "KHR_materials_emissive_strength": {
          "emissiveStrength": 1.8392094094
        }
      },
      "name": "material_1",
      "pbrMetallicRoughness": {
        "baseColorFactor": [
          0.0,
          0.0,
          0.0,
          0.0
        ],
        "metallicFactor": 0.0,
        "roughnessFactor": 0.5
      }
    }
  ],
  "meshes": [
    {
      "name": "Object_0",
      "primitives": [
        {
          "attributes": {
            "NORMAL": 1,
            "POSITION": 0,
            "TEXCOORD_0": 2
          },
          "indices": 3,
          "material": 0,
          "mode": 4
        }
      ]
    },
    {
      "name": "Object_1",
      "primitives": [
        {
          "attributes": {
            "NORMAL": 5,
            "POSITION": 4,
            "TEXCOORD_0": 6
          },
          "indices": 7,
          "material": 1,
          "mode": 4
        }
      ]
    },
    {
      "name": "Object_2",
      "primitives": [
        {
          "attributes": {
            "NORMAL": 9,
            "POSITION": 8,
            "TEXCOORD_0": 10
          },
          "indices": 11,
          "material": 1,
          "mode": 4
        }
      ]
    },
    {
      "name": "Object_3",
      "primitives": [
        {
          "attributes": {
            "NORMAL": 13,
            "POSITION": 12,
            "TEXCOORD_0": 14
          },
          "indices": 15,
          "material": 1,
          "mode": 4
        }
      ]
    },
    {
      "name": "Object_4",
      "primitives": [
        {
          "attributes": {
            "NORMAL": 17,
            "POSITION": 16,
            "TEXCOORD_0": 18
          },
          "indices": 19,
          "material": 1,
          "mode": 4
        }
      ]
    }
  ],
  "nodes": [
    {
      "children": [
        1
      ],
      "matrix": [
        1.0,
        0.0,
        0.0,
        0.0,
        0.0,
        2.220446049250313e-16,
        -1.0,
        0.0,
        0.0,
        1.0,
        2.220446049250313e-16,
        0.0,
        0.0,
        0.0,
        0.0,
        1.0
      ],
      "name": "Sketchfab_model"
    },
    {
      "children": [
        2
      ],
      "name": "root"
    },
    {
      "children": [
        3
      ],
      "matrix": [
        1.0,
        0.0,
        0.0,
        0.0,
        0.0,
        2.220446049250313e-16,
        1.0,
        0.0,
        0.0,
        -1.0,
        2.220446049250313e-16,
        0.0,
        0.0,
        0.0,
        0.0,
        1.0
      ],
      "name": "GLTF_SceneRootNode"
    },
    {
      "children": [
        4,
        6
      ],
      "name": "Circle_3",
      "scale": [
        0.1495826244354248,
        0.1495826244354248,
        0.1495826244354248
      ]
    },
    {
      "children": [
        5
      ],
      "matrix": [
        6.685267448425293,
        0.0,
        0.0,
        0.0,
        0.0,
        6.685267448425293,
        0.0,
        0.0,
        0.0,
        0.0,
        6.685267448425293,
        0.0,
        0.0,
        0.0,
        0.0,
        1.0
      ],
      "name": "Torus Knot 1 x 53.001_0"
    },
    {
      "mesh": 0,
      "name": "Object_5"
    },
    {
      "children": [
        7,
        8,
        9,
        10
      ],
      "matrix": [
        6.685267448425293,
        0.0,
        0.0,
        0.0,
        0.0,
        6.685267448425293,
        0.0,
        0.0,
        0.0,
        0.0,
        6.685267448425293,
        0.0,
        0.0,
        0.0,
        0.0,
        1.0
      ],
      "name": "Torus Knot 1 x 53.003_2"
    },
    {
      "mesh": 1,
      "name": "Object_7"
    },
    {
      "mesh": 2,
      "name": "Object_8"
    },
    {
      "mesh": 3,
      "name": "Object_9"
    },
    {
      "mesh": 4,
      "name": "Object_10"
    }
  ],
  "samplers": [
    {
      "magFilter": 9729,
      "minFilter": 9987,
      "wrapS": 10497,
      "wrapT": 10497
    }
  ],
  "scene": 0,
  "scenes": [
    {
      "name": "Sketchfab_Scene",
      "nodes": [
        0
      ]
    }
  ],
  "textures": [
    {
      "sampler": 0,
      "source": 0
    },
    {
      "sampler": 0,
      "source": 1
    }
  ]
}
